<svg xmlns="http://www.w3.org/2000/svg" xmlns:xlink="http://www.w3.org/1999/xlink" width="1920" zoomAndPan="magnify" viewBox="0 0 1440 809.999993" height="1080" preserveAspectRatio="xMidYMid meet" version="1.0"><defs><g/></defs><g fill="#000000" fill-opacity="1"><g transform="translate(65.890879, 551.258546)"><g><path d="M 35.140625 -57.40625 L 41.078125 -57.40625 C 48.828125 -57.40625 52.703125 -60.789062 52.703125 -67.5625 L 52.703125 -131.15625 L 50.234375 -131.15625 C 47.597656 -131.15625 45.617188 -130.367188 44.296875 -128.796875 C 42.972656 -127.234375 42.3125 -124.800781 42.3125 -121.5 L 42.3125 -99.984375 L 1.984375 -99.984375 L 1.984375 -189.3125 L 153.671875 -189.3125 L 153.671875 -100.21875 L 112.84375 -100.21875 L 112.84375 -121.75 C 112.84375 -124.394531 112.179688 -126.625 110.859375 -128.4375 C 109.546875 -130.25 107.734375 -131.15625 105.421875 -131.15625 L 102.453125 -131.15625 L 102.453125 -67.8125 C 102.453125 -64.675781 103.359375 -62.15625 105.171875 -60.25 C 106.984375 -58.351562 110.035156 -57.40625 114.328125 -57.40625 L 121.5 -57.40625 L 121.5 0 L 35.140625 0 Z M 35.140625 -57.40625 "/></g></g></g><g fill="#000000" fill-opacity="1"><g transform="translate(221.796701, 551.258546)"><g><path d="M 137.84375 2.71875 C 130.914062 2.71875 124.851562 2.140625 119.65625 0.984375 C 114.457031 -0.171875 110.164062 -2.601562 106.78125 -6.3125 C 103.394531 -10.019531 101.703125 -15.335938 101.703125 -22.265625 L 101.703125 -62.859375 C 101.703125 -68.796875 100.460938 -73.164062 97.984375 -75.96875 C 95.515625 -78.78125 91.722656 -80.1875 86.609375 -80.1875 L 70.03125 -80.1875 L 70.03125 -69.046875 C 70.03125 -65.910156 70.484375 -63.515625 71.390625 -61.859375 C 72.296875 -60.210938 73.863281 -59.054688 76.09375 -58.390625 C 78.320312 -57.734375 81.582031 -57.40625 85.875 -57.40625 L 88.84375 -57.40625 L 88.84375 0 L 4.953125 0 L 4.953125 -57.40625 L 10.890625 -57.40625 C 14.191406 -57.40625 16.5 -58.144531 17.8125 -59.625 C 19.132812 -61.113281 19.796875 -63.757812 19.796875 -67.5625 L 19.796875 -121.5 C 19.796875 -125.46875 19.21875 -128.191406 18.0625 -129.671875 C 16.90625 -131.160156 14.429688 -131.90625 10.640625 -131.90625 L 4.953125 -131.90625 L 4.953125 -189.3125 L 112.109375 -189.3125 C 122.828125 -189.3125 131.484375 -188.40625 138.078125 -186.59375 C 144.679688 -184.78125 149.753906 -181.234375 153.296875 -175.953125 C 156.847656 -170.671875 158.625 -163.164062 158.625 -153.4375 L 158.625 -127.9375 C 158.625 -117.875 156.269531 -109.789062 151.5625 -103.6875 C 146.863281 -97.582031 138.90625 -94.53125 127.6875 -94.53125 L 127.6875 -93.546875 C 135.769531 -93.546875 142 -91.644531 146.375 -87.84375 C 150.75 -84.050781 152.9375 -78.941406 152.9375 -72.515625 L 152.9375 -64.09375 C 152.9375 -59.3125 154.007812 -56.921875 156.15625 -56.921875 C 157.3125 -56.921875 158.132812 -57.535156 158.625 -58.765625 C 159.125 -60.003906 159.375 -62.03125 159.375 -64.84375 L 159.375 -85.875 L 172.234375 -85.875 L 172.234375 -28.21875 C 172.234375 -16.332031 169.179688 -8.203125 163.078125 -3.828125 C 156.972656 0.535156 148.5625 2.71875 137.84375 2.71875 Z M 92.0625 -108.140625 C 95.851562 -108.140625 98.570312 -109.171875 100.21875 -111.234375 C 101.875 -113.296875 102.703125 -116.640625 102.703125 -121.265625 C 102.703125 -124.722656 101.832031 -127.359375 100.09375 -129.171875 C 98.363281 -130.992188 95.601562 -131.90625 91.8125 -131.90625 L 69.78125 -131.90625 L 69.78125 -108.140625 Z M 92.0625 -108.140625 "/></g></g></g><g fill="#000000" fill-opacity="1"><g transform="translate(396.262705, 551.258546)"><g><path d="M 4.953125 -57.40625 L 10.890625 -57.40625 C 13.035156 -57.40625 14.644531 -57.691406 15.71875 -58.265625 C 16.789062 -58.847656 17.445312 -59.84375 17.6875 -61.25 C 17.9375 -62.65625 18.0625 -64.757812 18.0625 -67.5625 L 18.0625 -121.5 C 18.0625 -124.632812 17.976562 -126.820312 17.8125 -128.0625 C 17.644531 -129.300781 17.023438 -130.25 15.953125 -130.90625 C 14.890625 -131.570312 13.117188 -131.90625 10.640625 -131.90625 L 4.953125 -131.90625 L 4.953125 -189.3125 L 80.421875 -189.3125 L 80.421875 -131.90625 C 75.640625 -131.90625 72.257812 -131.285156 70.28125 -130.046875 C 68.300781 -128.804688 67.3125 -126.289062 67.3125 -122.5 L 67.3125 -66.328125 C 67.3125 -63.023438 68.300781 -60.710938 70.28125 -59.390625 C 72.257812 -58.066406 75.640625 -57.40625 80.421875 -57.40625 L 80.421875 0 L 4.953125 0 Z M 4.953125 -57.40625 "/></g></g></g><g fill="#000000" fill-opacity="1"><g transform="translate(481.6397, 551.258546)"><g><path d="M 4.953125 -57.40625 L 10.890625 -57.40625 C 14.191406 -57.40625 16.5 -58.144531 17.8125 -59.625 C 19.132812 -61.113281 19.796875 -63.757812 19.796875 -67.5625 L 19.796875 -121.5 C 19.796875 -125.46875 19.21875 -128.191406 18.0625 -129.671875 C 16.90625 -131.160156 14.429688 -131.90625 10.640625 -131.90625 L 4.953125 -131.90625 L 4.953125 -189.3125 L 110.625 -189.3125 C 126.457031 -189.3125 138.25 -186.257812 146 -180.15625 C 153.757812 -174.050781 157.640625 -163.820312 157.640625 -149.46875 L 157.640625 -118.53125 C 157.640625 -107.476562 156.113281 -98.609375 153.0625 -91.921875 C 150.007812 -85.242188 145.472656 -80.421875 139.453125 -77.453125 C 133.429688 -74.484375 125.882812 -73 116.8125 -73 L 70.03125 -73 L 70.03125 -66.328125 C 70.03125 -63.847656 70.398438 -61.988281 71.140625 -60.75 C 71.890625 -59.507812 73.296875 -58.640625 75.359375 -58.140625 C 77.421875 -57.648438 80.59375 -57.40625 84.875 -57.40625 L 88.84375 -57.40625 L 88.84375 0 L 4.953125 0 Z M 93.796875 -104.4375 C 97.085938 -104.4375 99.394531 -105.46875 100.71875 -107.53125 C 102.039062 -109.59375 102.703125 -113.425781 102.703125 -119.03125 C 102.703125 -123.976562 101.957031 -127.359375 100.46875 -129.171875 C 98.988281 -130.992188 96.429688 -131.90625 92.796875 -131.90625 L 69.78125 -131.90625 L 69.78125 -104.4375 Z M 93.796875 -104.4375 "/></g></g></g><g fill="#000000" fill-opacity="1"><g transform="translate(642.494914, 551.258546)"><g><path d="M 35.140625 -57.40625 L 41.078125 -57.40625 C 48.828125 -57.40625 52.703125 -60.789062 52.703125 -67.5625 L 52.703125 -131.15625 L 50.234375 -131.15625 C 47.597656 -131.15625 45.617188 -130.367188 44.296875 -128.796875 C 42.972656 -127.234375 42.3125 -124.800781 42.3125 -121.5 L 42.3125 -99.984375 L 1.984375 -99.984375 L 1.984375 -189.3125 L 153.671875 -189.3125 L 153.671875 -100.21875 L 112.84375 -100.21875 L 112.84375 -121.75 C 112.84375 -124.394531 112.179688 -126.625 110.859375 -128.4375 C 109.546875 -130.25 107.734375 -131.15625 105.421875 -131.15625 L 102.453125 -131.15625 L 102.453125 -67.8125 C 102.453125 -64.675781 103.359375 -62.15625 105.171875 -60.25 C 106.984375 -58.351562 110.035156 -57.40625 114.328125 -57.40625 L 121.5 -57.40625 L 121.5 0 L 35.140625 0 Z M 35.140625 -57.40625 "/></g></g></g><g fill="#000000" fill-opacity="1"><g transform="translate(798.400744, 551.258546)"><g><path d="M 137.84375 2.71875 C 130.914062 2.71875 124.851562 2.140625 119.65625 0.984375 C 114.457031 -0.171875 110.164062 -2.601562 106.78125 -6.3125 C 103.394531 -10.019531 101.703125 -15.335938 101.703125 -22.265625 L 101.703125 -62.859375 C 101.703125 -68.796875 100.460938 -73.164062 97.984375 -75.96875 C 95.515625 -78.78125 91.722656 -80.1875 86.609375 -80.1875 L 70.03125 -80.1875 L 70.03125 -69.046875 C 70.03125 -65.910156 70.484375 -63.515625 71.390625 -61.859375 C 72.296875 -60.210938 73.863281 -59.054688 76.09375 -58.390625 C 78.320312 -57.734375 81.582031 -57.40625 85.875 -57.40625 L 88.84375 -57.40625 L 88.84375 0 L 4.953125 0 L 4.953125 -57.40625 L 10.890625 -57.40625 C 14.191406 -57.40625 16.5 -58.144531 17.8125 -59.625 C 19.132812 -61.113281 19.796875 -63.757812 19.796875 -67.5625 L 19.796875 -121.5 C 19.796875 -125.46875 19.21875 -128.191406 18.0625 -129.671875 C 16.90625 -131.160156 14.429688 -131.90625 10.640625 -131.90625 L 4.953125 -131.90625 L 4.953125 -189.3125 L 112.109375 -189.3125 C 122.828125 -189.3125 131.484375 -188.40625 138.078125 -186.59375 C 144.679688 -184.78125 149.753906 -181.234375 153.296875 -175.953125 C 156.847656 -170.671875 158.625 -163.164062 158.625 -153.4375 L 158.625 -127.9375 C 158.625 -117.875 156.269531 -109.789062 151.5625 -103.6875 C 146.863281 -97.582031 138.90625 -94.53125 127.6875 -94.53125 L 127.6875 -93.546875 C 135.769531 -93.546875 142 -91.644531 146.375 -87.84375 C 150.75 -84.050781 152.9375 -78.941406 152.9375 -72.515625 L 152.9375 -64.09375 C 152.9375 -59.3125 154.007812 -56.921875 156.15625 -56.921875 C 157.3125 -56.921875 158.132812 -57.535156 158.625 -58.765625 C 159.125 -60.003906 159.375 -62.03125 159.375 -64.84375 L 159.375 -85.875 L 172.234375 -85.875 L 172.234375 -28.21875 C 172.234375 -16.332031 169.179688 -8.203125 163.078125 -3.828125 C 156.972656 0.535156 148.5625 2.71875 137.84375 2.71875 Z M 92.0625 -108.140625 C 95.851562 -108.140625 98.570312 -109.171875 100.21875 -111.234375 C 101.875 -113.296875 102.703125 -116.640625 102.703125 -121.265625 C 102.703125 -124.722656 101.832031 -127.359375 100.09375 -129.171875 C 98.363281 -130.992188 95.601562 -131.90625 91.8125 -131.90625 L 69.78125 -131.90625 L 69.78125 -108.140625 Z M 92.0625 -108.140625 "/></g></g></g><g fill="#000000" fill-opacity="1"><g transform="translate(972.866785, 551.258546)"><g><path d="M 4.953125 -57.40625 L 10.890625 -57.40625 C 13.035156 -57.40625 14.644531 -57.691406 15.71875 -58.265625 C 16.789062 -58.847656 17.445312 -59.84375 17.6875 -61.25 C 17.9375 -62.65625 18.0625 -64.757812 18.0625 -67.5625 L 18.0625 -121.5 C 18.0625 -124.632812 17.976562 -126.820312 17.8125 -128.0625 C 17.644531 -129.300781 17.023438 -130.25 15.953125 -130.90625 C 14.890625 -131.570312 13.117188 -131.90625 10.640625 -131.90625 L 4.953125 -131.90625 L 4.953125 -189.3125 L 80.421875 -189.3125 L 80.421875 -131.90625 C 75.640625 -131.90625 72.257812 -131.285156 70.28125 -130.046875 C 68.300781 -128.804688 67.3125 -126.289062 67.3125 -122.5 L 67.3125 -66.328125 C 67.3125 -63.023438 68.300781 -60.710938 70.28125 -59.390625 C 72.257812 -58.066406 75.640625 -57.40625 80.421875 -57.40625 L 80.421875 0 L 4.953125 0 Z M 4.953125 -57.40625 "/></g></g></g><g fill="#000000" fill-opacity="1"><g transform="translate(1058.243734, 551.258546)"><g><path d="M 4.953125 -57.40625 L 10.890625 -57.40625 C 14.347656 -57.40625 16.941406 -58.1875 18.671875 -59.75 C 20.410156 -61.320312 21.28125 -63.925781 21.28125 -67.5625 L 21.28125 -121.5 C 21.28125 -125.300781 20.453125 -127.984375 18.796875 -129.546875 C 17.148438 -131.117188 14.429688 -131.90625 10.640625 -131.90625 L 4.953125 -131.90625 L 4.953125 -189.3125 L 122.25 -189.3125 C 134.625 -189.3125 143.613281 -185.679688 149.21875 -178.421875 C 154.832031 -171.160156 157.640625 -161.921875 157.640625 -150.703125 L 157.640625 -130.90625 C 157.640625 -121.175781 156.359375 -113.835938 153.796875 -108.890625 C 151.242188 -103.941406 148.191406 -100.640625 144.640625 -98.984375 C 141.097656 -97.335938 136.4375 -96.019531 130.65625 -95.03125 C 139.070312 -93.875 145.960938 -91.023438 151.328125 -86.484375 C 156.691406 -81.953125 159.375 -74.320312 159.375 -63.59375 L 159.375 -39.09375 C 159.375 -27.875 156.894531 -18.550781 151.9375 -11.125 C 146.988281 -3.707031 139.15625 0 128.4375 0 L 4.953125 0 Z M 95.28125 -107.65625 C 98.738281 -107.65625 101.289062 -108.644531 102.9375 -110.625 C 104.59375 -112.601562 105.421875 -116.066406 105.421875 -121.015625 C 105.421875 -125.304688 104.550781 -128.191406 102.8125 -129.671875 C 101.082031 -131.160156 98.238281 -131.90625 94.28125 -131.90625 L 71.265625 -131.90625 L 71.265625 -107.65625 Z M 95.28125 -56.671875 C 99.070312 -56.671875 101.707031 -57.617188 103.1875 -59.515625 C 104.675781 -61.410156 105.421875 -64.914062 105.421875 -70.03125 C 105.421875 -75.144531 104.550781 -78.773438 102.8125 -80.921875 C 101.082031 -83.066406 98.238281 -84.140625 94.28125 -84.140625 L 71.265625 -84.140625 L 71.265625 -56.671875 Z M 95.28125 -56.671875 "/></g></g></g><g fill="#000000" fill-opacity="1"><g transform="translate(1222.563491, 551.258546)"><g><path d="M 4.953125 -57.40625 L 10.890625 -57.40625 C 14.191406 -57.40625 16.5 -58.144531 17.8125 -59.625 C 19.132812 -61.113281 19.796875 -63.757812 19.796875 -67.5625 L 19.796875 -121.5 C 19.796875 -125.46875 19.21875 -128.191406 18.0625 -129.671875 C 16.90625 -131.160156 14.429688 -131.90625 10.640625 -131.90625 L 4.953125 -131.90625 L 4.953125 -189.3125 L 149.96875 -189.3125 L 149.96875 -106.65625 L 103.9375 -106.65625 L 103.9375 -121.015625 C 103.9375 -125.304688 102.820312 -128.316406 100.59375 -130.046875 C 98.363281 -131.773438 95.1875 -132.640625 91.0625 -132.640625 L 69.78125 -132.640625 L 69.78125 -105.421875 L 74.484375 -105.421875 C 77.285156 -105.421875 79.179688 -106.328125 80.171875 -108.140625 C 81.171875 -109.953125 81.671875 -112.425781 81.671875 -115.5625 L 81.671875 -124.484375 L 96.265625 -124.484375 L 96.265625 -65.328125 L 81.671875 -65.328125 L 81.671875 -70.78125 C 81.671875 -74.070312 81.171875 -76.75 80.171875 -78.8125 C 79.179688 -80.875 77.203125 -81.90625 74.234375 -81.90625 L 69.78125 -81.90625 L 69.78125 -57.40625 L 91.8125 -57.40625 C 96.425781 -57.40625 99.722656 -58.601562 101.703125 -61 C 103.679688 -63.394531 104.671875 -67.234375 104.671875 -72.515625 L 104.671875 -84.875 L 152.6875 -84.875 L 152.6875 0 L 4.953125 0 Z M 4.953125 -57.40625 "/></g></g></g></svg>