<svg xmlns="http://www.w3.org/2000/svg" xmlns:xlink="http://www.w3.org/1999/xlink" width="500" zoomAndPan="magnify" viewBox="0 0 375 374.999991" height="500" preserveAspectRatio="xMidYMid meet" version="1.0"><defs><clipPath id="6f41f9ed7f"><path d="M 42 135.40625 L 366.546875 135.40625 L 366.546875 185.539062 L 42 185.539062 Z M 42 135.40625 " clip-rule="nonzero"/></clipPath><clipPath id="87666ad21e"><path d="M 42 189.230469 L 366.546875 189.230469 L 366.546875 239.890625 L 42 239.890625 Z M 42 189.230469 " clip-rule="nonzero"/></clipPath><clipPath id="5f397288fe"><path d="M 85.039062 297.410156 L 323.335938 297.410156 L 323.335938 349.851562 L 85.039062 349.851562 Z M 85.039062 297.410156 " clip-rule="nonzero"/></clipPath><clipPath id="18140794fd"><path d="M 85 25.113281 L 324 25.113281 L 324 78 L 85 78 Z M 85 25.113281 " clip-rule="nonzero"/></clipPath><clipPath id="32a4536696"><path d="M 56.570312 177 L 365.515625 177 L 365.515625 349.851562 L 56.570312 349.851562 Z M 56.570312 177 " clip-rule="nonzero"/></clipPath><clipPath id="b49f43dcd2"><path d="M 75.023438 272.082031 L 327.554688 272.082031 L 327.554688 349.851562 L 75.023438 349.851562 Z M 75.023438 272.082031 " clip-rule="nonzero"/></clipPath></defs><g clip-path="url(#6f41f9ed7f)"><path fill="#f27022" d="M 366.550781 185.375 C 366.324219 167.9375 363.371094 151.164062 358.074219 135.46875 L 50.644531 135.46875 C 45.347656 151.164062 42.390625 167.9375 42.167969 185.375 L 366.550781 185.375 " fill-opacity="1" fill-rule="nonzero"/></g><path fill="#f49334" d="M 52.136719 131.25 L 356.578125 131.25 C 349.777344 112.808594 339.726562 95.941406 327.121094 81.34375 L 81.597656 81.34375 C 68.988281 95.941406 58.941406 112.808594 52.136719 131.25 " fill-opacity="1" fill-rule="nonzero"/><g clip-path="url(#87666ad21e)"><path fill="#eb362f" d="M 358.074219 239.496094 C 363.371094 223.800781 366.328125 207.027344 366.550781 189.589844 L 42.167969 189.589844 C 42.390625 207.027344 45.34375 223.800781 50.644531 239.496094 L 358.074219 239.496094 " fill-opacity="1" fill-rule="nonzero"/></g><g clip-path="url(#5f397288fe)"><path fill="#093950" d="M 85.378906 297.839844 C 115.007812 329.824219 157.34375 349.851562 204.359375 349.851562 C 251.375 349.851562 293.710938 329.824219 323.335938 297.839844 L 85.378906 297.839844 " fill-opacity="1" fill-rule="nonzero"/></g><g clip-path="url(#18140794fd)"><path fill="#ffc44d" d="M 323.335938 77.128906 C 293.710938 45.140625 251.371094 25.113281 204.359375 25.113281 C 157.34375 25.113281 115.007812 45.140625 85.378906 77.128906 L 323.335938 77.128906 " fill-opacity="1" fill-rule="nonzero"/></g><path fill="#ffffff" d="M 316.4375 131.25 C 316.4375 146.078125 304.429688 158.09375 289.617188 158.09375 C 274.804688 158.09375 262.796875 146.078125 262.796875 131.25 C 262.796875 116.425781 274.804688 104.40625 289.617188 104.40625 C 304.429688 104.40625 316.4375 116.425781 316.4375 131.25 " fill-opacity="1" fill-rule="nonzero"/><g clip-path="url(#32a4536696)"><path fill="#04b09a" d="M 365.152344 208.808594 C 348.816406 189.664062 329.667969 175.359375 309.609375 177.152344 C 282.929688 179.53125 253.328125 206.195312 229.578125 233.5625 C 211.289062 214.453125 190.238281 199.320312 170.097656 200.582031 C 136.300781 202.695312 87.339844 233.375 56.800781 254.917969 C 82.390625 310.902344 138.832031 349.800781 204.359375 349.800781 C 286.699219 349.800781 354.707031 288.378906 365.152344 208.808594 " fill-opacity="1" fill-rule="nonzero"/></g><path fill="#ffffff" d="M 57.039062 254.753906 C 87.59375 233.21875 136.386719 202.691406 170.097656 200.582031 C 170.882812 200.53125 171.667969 200.507812 172.460938 200.507812 C 191.875 200.507812 212.003906 215.199219 229.578125 233.5625 C 253.328125 206.195312 282.929688 179.53125 309.609375 177.152344 C 310.75 177.046875 311.882812 177 313.015625 177 C 331.796875 177 349.675781 190.703125 365.070312 208.714844 C 365.324219 206.851562 365.550781 204.980469 365.738281 203.09375 C 347.78125 182.992188 330.058594 172.78125 313.015625 172.78125 C 311.753906 172.78125 310.484375 172.839844 309.234375 172.949219 C 286.511719 174.980469 259.667969 193.28125 229.414062 227.363281 C 208.816406 206.738281 189.671875 196.292969 172.460938 196.292969 C 171.582031 196.292969 170.703125 196.316406 169.835938 196.371094 C 136.257812 198.472656 89.199219 226.992188 55.289062 250.832031 C 55.855469 252.148438 56.441406 253.453125 57.039062 254.753906 " fill-opacity="1" fill-rule="nonzero"/><path fill="#093950" d="M 149.65625 307.03125 C 141.617188 274.039062 124.960938 231.292969 90.46875 200.210938 L 110.714844 198.351562 L 103.359375 192.925781 C 103.359375 192.925781 116.03125 189.019531 126.824219 190.773438 L 121.886719 184.621094 C 121.886719 184.621094 142.742188 183.90625 148.089844 187.105469 L 141.808594 180.300781 C 141.808594 180.300781 164.859375 179.222656 174.210938 184.925781 C 174.210938 184.925781 161.757812 159.421875 123.332031 164.835938 C 99.03125 168.257812 89.507812 181.757812 85.789062 191.21875 C 86.625 184.191406 89.433594 168.957031 98.382812 161.976562 L 90.429688 162.191406 L 102.898438 146.714844 L 95.757812 148.316406 L 110.925781 124.871094 C 110.925781 124.871094 86.375 130.125 78.761719 149.960938 C 73.871094 162.707031 76.800781 178.523438 79.515625 188.203125 C 75.386719 182.257812 65.820312 171.902344 48.019531 169.085938 C 22.621094 165.066406 10.703125 180.0625 10.703125 180.0625 L 31.253906 178.863281 L 25.546875 182.992188 L 43.609375 180.820312 L 40.039062 184.921875 L 57.316406 186.339844 L 51.5 190.21875 L 68.332031 194.703125 C 59.316406 194.941406 45.484375 197.074219 31.601562 206.03125 C 8.046875 221.238281 13.804688 251.34375 13.804688 251.34375 C 13.804688 251.34375 19.429688 237.871094 25.785156 233.339844 L 27.640625 239.523438 L 33.113281 224.429688 L 36.023438 230 L 50.140625 213.769531 L 50.15625 219.519531 C 50.15625 219.519531 61.214844 210.039062 80.082031 201.066406 C 74.25 206.214844 59.996094 220.734375 53.546875 244.410156 C 45.335938 274.566406 72.207031 290.867188 72.207031 290.867188 L 67.375 261.789062 L 75.683594 266.40625 C 75.683594 266.40625 71.972656 254.617188 73.050781 246.394531 L 80.296875 250.648438 C 80.296875 250.648438 77.214844 234.457031 78.539062 226.441406 L 84.863281 234.328125 C 84.863281 234.328125 81.386719 214.890625 85.128906 206.34375 C 92.773438 211.84375 121.203125 236.652344 132.746094 307.03125 L 149.65625 307.03125 " fill-opacity="1" fill-rule="nonzero"/><path fill="#00979e" d="M 304.574219 203.859375 C 287.371094 210.1875 341.042969 214.402344 323.335938 233.734375 C 305.632812 253.066406 289.640625 260.445312 320.457031 266.066406 C 330.164062 267.839844 336.355469 271.644531 340.289062 276.03125 C 353.210938 256.199219 361.925781 233.371094 365.152344 208.808594 C 348.816406 189.664062 329.667969 175.359375 309.609375 177.152344 C 307.941406 177.300781 306.261719 177.542969 304.574219 177.878906 C 304.574219 177.878906 321.777344 197.535156 304.574219 203.859375 " fill-opacity="1" fill-rule="nonzero"/><path fill="#00979e" d="M 246.183594 282.558594 C 246.183594 282.558594 239.25 255.113281 231.101562 231.824219 C 230.59375 232.402344 230.082031 232.984375 229.578125 233.5625 C 211.859375 215.050781 191.554688 200.273438 171.992188 200.511719 C 168.757812 206.828125 167.574219 214.292969 176.417969 218.269531 C 193.621094 226.003906 200.644531 246.386719 182.386719 252.710938 C 164.128906 259.039062 204.359375 277.34375 204.359375 277.34375 L 246.183594 282.558594 " fill-opacity="1" fill-rule="nonzero"/><path fill="#093950" d="M 267.46875 136.109375 C 248.945312 126.425781 231.28125 125.339844 219.890625 126.082031 L 240.578125 118.488281 L 232.800781 114.273438 L 254.402344 110.488281 L 249.433594 105.730469 L 272.441406 106.378906 L 264.769531 101.839844 L 290.800781 100.976562 C 290.800781 100.976562 274.058594 83.464844 242.523438 91.460938 C 220.425781 97.070312 209.570312 111.21875 205.050781 119.1875 C 207.359375 106.679688 209.222656 86.414062 201.589844 70.921875 C 189.710938 46.816406 158.175781 43.03125 158.175781 43.03125 L 179.988281 70.816406 L 170.808594 69.625 L 188.304688 87.679688 L 178.261719 88.328125 C 190.339844 96.085938 195.632812 114.953125 197.5 123.714844 C 191.722656 112.222656 178.167969 96.316406 147.160156 94.8125 C 98.125 92.433594 85.378906 126.003906 85.378906 126.003906 C 96.503906 117.738281 125.664062 116.433594 125.664062 116.433594 L 118.535156 125.730469 C 124.910156 121.082031 151.261719 119.570312 151.261719 119.570312 L 145.753906 127.894531 C 159.144531 124.433594 175.5625 127.894531 175.5625 127.894531 L 166.921875 135.578125 L 192.640625 135.578125 C 142.550781 189.792969 130.050781 263.945312 127.21875 306.621094 L 150.597656 306.621094 C 150.585938 192.875 190.097656 151.355469 200.078125 142.6875 C 205.777344 153.019531 203.640625 177.910156 203.640625 177.910156 L 210.699219 167.242188 C 213.289062 177.1875 211.273438 197.945312 211.273438 197.945312 L 219.914062 191.746094 C 222.21875 201.980469 218.90625 217.257812 218.90625 217.257812 L 228.84375 210.484375 L 226.109375 247.671875 C 226.109375 247.671875 258.074219 224.03125 244.25 186.992188 C 233.398438 157.910156 213.765625 141.269531 205.824219 135.457031 C 230.628906 144.574219 245.65625 155.242188 245.65625 155.242188 L 245.007812 148 L 264.664062 166.808594 L 267.6875 159.460938 L 276.328125 177.835938 L 277.945312 169.839844 C 286.480469 174.808594 295.121094 191.132812 295.121094 191.132812 C 295.121094 191.132812 298.898438 152.542969 267.46875 136.109375 " fill-opacity="1" fill-rule="nonzero"/><g clip-path="url(#b49f43dcd2)"><path fill="#093950" d="M 327.46875 293.140625 C 265.246094 285.746094 171.125 270.679688 131.242188 272.277344 C 107.511719 273.226562 88.484375 279.78125 75.480469 286.011719 C 105.121094 324.785156 151.816406 349.800781 204.359375 349.800781 C 253.605469 349.800781 297.722656 327.824219 327.46875 293.140625 " fill-opacity="1" fill-rule="nonzero"/></g><path fill="#ffffff" d="M 76.8125 287.746094 C 89.621094 281.664062 108.25 275.308594 131.324219 274.386719 C 160.414062 273.199219 219.921875 281.160156 272.417969 288.164062 C 291.316406 290.6875 309.582031 293.121094 325.789062 295.0625 C 326.910156 293.792969 328.015625 292.515625 329.101562 291.210938 C 312.246094 289.226562 292.957031 286.648438 272.972656 283.984375 C 220.308594 276.957031 160.617188 268.992188 131.15625 270.167969 C 106.730469 271.148438 87.332031 277.878906 74.148438 284.257812 C 75.023438 285.433594 75.90625 286.597656 76.8125 287.746094 " fill-opacity="1" fill-rule="nonzero"/></svg>